<svg width="484" height="484" viewBox="0 0 484 484" fill="none" xmlns="http://www.w3.org/2000/svg">
<path d="M445.654 219.373L355.123 309.873C305.154 359.873 224.092 359.873 174.123 309.873C166.248 302.029 160.092 293.185 154.685 284.06L196.748 241.997C198.748 239.981 201.217 238.825 203.576 237.466C206.482 247.404 211.56 256.81 219.373 264.622C244.326 289.591 284.936 289.56 309.873 264.622L400.373 174.122C425.342 149.153 425.342 108.559 400.373 83.606C375.435 58.653 334.842 58.653 309.873 83.606L277.685 115.825C251.576 105.653 223.435 102.919 196.044 106.934L264.622 38.356C314.622 -11.628 395.653 -11.628 445.653 38.356C495.623 88.342 495.623 169.389 445.654 219.373ZM206.326 368.186L174.123 400.405C149.17 425.343 108.56 425.343 83.6071 400.405C58.6541 375.436 58.6541 334.842 83.6071 309.874L174.123 219.374C199.092 194.405 239.67 194.405 264.623 219.374C272.42 227.171 277.498 236.577 280.436 246.499C282.811 245.124 285.249 243.999 287.249 241.999L329.312 199.952C323.937 190.796 317.749 181.983 309.874 174.124C259.905 124.14 178.843 124.14 128.858 174.124L38.3581 264.624C-11.6259 314.624 -11.6259 395.655 38.3581 445.655C88.3421 495.624 169.389 495.624 219.374 445.655L287.968 377.061C260.561 381.092 232.42 378.342 206.326 368.186Z" fill="black" fill-opacity="0.54"/>
</svg>
